<?xml version="1.0" encoding="UTF-8"?>
<svg version="1.1" xmlns="http://www.w3.org/2000/svg" width="359" height="489">
<path d="M0 0 C6.86118298 -0.57176525 11.42467932 1.22422361 16.8515625 5.4375 C24.33461372 12.29421654 28.88873449 21.27763457 29.37890625 31.375 C29.93584706 46.74703441 27.97652485 58.31261534 21 72 C20.68377686 72.64686768 20.36755371 73.29373535 20.04174805 73.96020508 C17.30384018 79.54626742 14.30987836 84.98754677 11.3125 90.4375 C7.52483807 97.34543529 3.78150898 104.27177197 0.125 111.25 C-2.59341377 116.4339797 -5.44544916 121.47401954 -8.52734375 126.453125 C-11.06392109 130.83999085 -13.20406465 135.42506412 -15.38671875 139.99609375 C-16.75061653 142.53565161 -17.73586437 144.25787342 -20 146 C-22.69877147 145.81387783 -24.51866063 144.73515202 -26.9375 143.5 C-29.7172827 142.13847378 -31.96160412 141.44682292 -35 141 C-35 142.32 -35 143.64 -35 145 C-34.13375 145.226875 -33.2675 145.45375 -32.375 145.6875 C-28.28304181 147.27881707 -26.13746278 148.93550148 -23 152 C-22 156 -22 156 -22 167 C-13.09 167 -4.18 167 5 167 C-3.28747424 185.61285199 -3.28747424 185.61285199 -7.046875 193.203125 C-7.54856201 194.22204834 -8.05024902 195.24097168 -8.56713867 196.29077148 C-9.54789726 198.27262439 -10.5398956 200.24896312 -11.54418945 202.21899414 C-15.40449251 210.0451635 -15.26140713 215.45046281 -14 224 C-13.01223361 231.86208654 -12.89584286 239.71229388 -12.875 247.625 C-12.87040771 248.59050781 -12.86581543 249.55601562 -12.86108398 250.55078125 C-12.87276933 256.03260993 -13.17909663 261.3824662 -13.78613281 266.82958984 C-14.0397676 269.40357763 -14.03151262 271.91669669 -13.9375 274.5 C-13.89280614 279.73663047 -14.18579518 285.04246705 -16 290 C-19.78842473 292.52561648 -22.78533329 292.25391573 -27.16796875 292.1953125 C-28.36018791 292.19106766 -28.36018791 292.19106766 -29.57649231 292.18673706 C-32.11364838 292.17554705 -34.65045072 292.15044491 -37.1875 292.125 C-38.90819802 292.11496866 -40.62890159 292.10584308 -42.34960938 292.09765625 C-46.56654243 292.07561161 -50.78321125 292.04109006 -55 292 C-55.16580566 292.53367187 -55.33161133 293.06734375 -55.50244141 293.6171875 C-57.42126867 299.60009867 -59.74195672 305.29803803 -62.375 311 C-62.74882812 311.85722656 -63.12265625 312.71445312 -63.5078125 313.59765625 C-64.5557073 315.86211385 -65.56088351 317.96090801 -67 320 C-69.546875 320.60546875 -69.546875 320.60546875 -72 321 C-73.54337499 323.46032131 -74.71311346 325.68088687 -75.875 328.3125 C-76.56724026 329.78400128 -77.26258613 331.25404535 -77.9609375 332.72265625 C-78.47479004 333.81537842 -78.47479004 333.81537842 -78.99902344 334.93017578 C-83.02721602 343.25969206 -88.20755074 350.96554762 -93.3984375 358.6015625 C-94.99199617 360.88000883 -94.99199617 360.88000883 -96 363 C-95.14450562 363.56714722 -95.14450562 363.56714722 -94.27172852 364.14575195 C-91.69638581 365.8597567 -89.12942933 367.58592352 -86.5625 369.3125 C-85.66466797 369.90740234 -84.76683594 370.50230469 -83.84179688 371.11523438 C-82.56079102 371.98051758 -82.56079102 371.98051758 -81.25390625 372.86328125 C-80.06776733 373.65665894 -80.06776733 373.65665894 -78.85766602 374.46606445 C-77 376 -77 376 -76 379 C-77 380 -77 380 -78.85083008 380.08178711 C-79.64900146 380.0638208 -80.44717285 380.04585449 -81.26953125 380.02734375 C-82.15310303 380.01364746 -83.0366748 379.99995117 -83.94702148 379.98583984 C-84.89262939 379.9698877 -85.8382373 379.95393555 -86.8125 379.9375 C-94.70849362 379.86957461 -102.30120525 380.02969234 -110 382 C-110.90878906 382.21527344 -111.81757813 382.43054688 -112.75390625 382.65234375 C-117.41644184 384.58805347 -121.03471283 387.60161441 -125 390.6875 C-131.77443738 395.83942752 -138.34845783 400.10714385 -146.1171875 403.5703125 C-152.40398681 406.68815606 -155.72565428 410.45971934 -158 417 C-158.54163249 422.14550863 -157.57896322 426.16442514 -156 431 C-157.12073862 431.83905565 -158.24674547 432.67107831 -159.375 433.5 C-160.00148437 433.9640625 -160.62796875 434.428125 -161.2734375 434.90625 C-163 436 -163 436 -165 436 C-165.9351792 438.80553761 -166.11121942 440.48928953 -166.10546875 443.38671875 C-166.12029297 444.24330078 -166.13511719 445.09988281 -166.15039062 445.98242188 C-166.17486007 447.76611581 -166.18049668 449.55018138 -166.16601562 451.33398438 C-166.3332206 458.11845286 -168.22185266 462.16895276 -173 467 C-178.25116925 471.22878094 -184.21586202 473.30054486 -190.48828125 475.6171875 C-198.0728212 478.60375829 -205.56477688 482.1664362 -212.1875 486.9375 C-216.887378 489.94381855 -221.60938754 490.06453271 -227 489 C-229.68915215 487.78781296 -232.00942706 486.36863523 -234.453125 484.71875 C-237.13831049 482.90666163 -239.8883396 481.39090659 -242.75 479.875 C-255.22262118 473.11018851 -255.22262118 473.11018851 -257 469 C-256.70721214 464.35975599 -255.53255658 460.79076583 -252.9375 456.9375 C-250.37161332 453.04728471 -250.0761936 450.64780951 -250 446 C-251.31318262 444.10041919 -251.31318262 444.10041919 -253 443 C-253 442.34 -253 441.68 -253 441 C-253.66 441 -254.32 441 -255 441 C-256.03182394 437.23720728 -256.25943783 435.53612551 -254.53125 431.96484375 C-253.8609375 430.96582031 -253.190625 429.96679688 -252.5 428.9375 C-249.71170271 425.01076828 -249.71170271 425.01076828 -249.11328125 420.4296875 C-250.06712767 417.81606426 -251.27508396 415.58280281 -252.6875 413.1875 C-254.34468509 409.91661281 -255.46973102 407.65801437 -254.75 404 C-253.25081983 399.74096544 -250.52074255 396.30997298 -247.88671875 392.6875 C-242.1543341 384.52211566 -238.95074212 377.41077127 -239.41015625 367.28125 C-240.53326216 361.03350854 -243.61547806 356.90761755 -248.5 353 C-251.32847313 351.86861075 -253.97936998 351.35123605 -257 351 C-256.30263623 347.38403972 -254.77984914 344.49154898 -253.0625 341.25 C-248.36793831 331.93806169 -248.36793831 331.93806169 -249.125 321.75 C-250.4279556 317.94046166 -251.85230513 315.60498886 -255 313 C-255 312.34 -255 311.68 -255 311 C-252.78990865 309.44929804 -250.48678607 308.10566858 -248.1640625 306.73046875 C-245.58405705 304.6673958 -244.85992754 303.16295185 -244 300 C-244.32926958 296.76214972 -244.32926958 296.76214972 -246 294 C-250.64941234 291.45389324 -254.98893764 291.83237382 -260 293 C-263.33682632 294.03417377 -266.64911302 295.11166799 -269.94921875 296.2578125 C-273.16288106 297.03962535 -274.90343904 297.11714809 -278 296 C-283.19818627 288.20272059 -280.77125748 276.41798503 -280.22851562 267.50585938 C-279.84560214 259.94881972 -279.75609449 252.63110235 -284 246 C-284.66 245.67 -285.32 245.34 -286 245 C-286 244.34 -286 243.68 -286 243 C-286.556875 242.773125 -287.11375 242.54625 -287.6875 242.3125 C-291.71969057 240.02395941 -294.45058599 236.82412102 -297 233 C-296.90045853 229.21742432 -296.15731037 228.1498194 -293.375 225.5 C-292.59125 224.675 -291.8075 223.85 -291 223 C-290.93453102 220.48952515 -290.93453102 220.48952515 -292 218 C-292.350625 216.906875 -292.70125 215.81375 -293.0625 214.6875 C-293.371875 213.800625 -293.68125 212.91375 -294 212 C-298.85729645 211.02700844 -303.4500625 210.87961195 -308.375 210.9375 C-309.47908203 210.94426758 -309.47908203 210.94426758 -310.60546875 210.95117188 C-312.40368158 210.96284858 -314.20185197 210.98077989 -316 211 C-316.66 209.68 -317.32 208.36 -318 207 C-317.6390625 206.54109375 -317.278125 206.0821875 -316.90625 205.609375 C-316.21015625 204.68898437 -316.21015625 204.68898437 -315.5 203.75 C-315.0359375 203.14671875 -314.571875 202.5434375 -314.09375 201.921875 C-312.67025581 199.78914405 -312.67025581 199.78914405 -313 196 C-313.62648438 195.72285156 -314.25296875 195.44570312 -314.8984375 195.16015625 C-315.71570313 194.79792969 -316.53296875 194.43570313 -317.375 194.0625 C-318.18710937 193.70285156 -318.99921875 193.34320313 -319.8359375 192.97265625 C-321.23683785 192.3430097 -322.62625284 191.68687358 -324 191 C-324 190.34 -324 189.68 -324 189 C-324.66 189 -325.32 189 -326 189 C-329.65083143 184.5975268 -330.45374191 181.67177385 -330 176 C-328.1746875 175.5978125 -328.1746875 175.5978125 -326.3125 175.1875 C-319.55806473 173.46926647 -315.10922559 169.54971385 -310 165 C-309.195625 166.175625 -309.195625 166.175625 -308.375 167.375 C-305.30580707 170.76726587 -302.5292978 171.78887331 -297.95263672 172.17089844 C-295.71471755 172.23185538 -293.48838179 172.22397449 -291.25 172.1875 C-290.48300781 172.18685547 -289.71601563 172.18621094 -288.92578125 172.18554688 C-284.83060861 172.23916606 -284.83060861 172.23916606 -281 171 C-280.77205503 168.98105885 -280.54529093 166.96195137 -280.33203125 164.94140625 C-280 163 -280 163 -278.75 161.0625 C-276.42665318 159.65189657 -274.71718692 159.2663152 -272 159 C-269.203125 160.1015625 -269.203125 160.1015625 -266.25 161.625 C-262.12263469 163.45095451 -259.60793193 164.50757812 -255.25 163.0625 C-253.10330227 162.12547988 -251.11423741 161.06634647 -249.08984375 159.890625 C-243.08619762 156.48814793 -237.81432283 156.59114063 -231 157 C-230.56300781 156.09507812 -230.56300781 156.09507812 -230.1171875 155.171875 C-225.1860699 145.55774635 -217.89096649 142.612868 -208 139 C-207.34 139 -206.68 139 -206 139 C-206 138.34 -206 137.68 -206 137 C-205.34 137 -204.68 137 -204 137 C-203.505 133.04 -203.505 133.04 -203 129 C-203.59167969 128.69707031 -204.18335938 128.39414063 -204.79296875 128.08203125 C-210.53901692 125.03559462 -215.4417104 122.31600317 -218.3125 116.20703125 C-219.2051995 112.04279095 -218.2061334 110.7368112 -216.0625 107.125 C-212.84149446 100.79932321 -212.62033454 96.30951083 -213.51586914 89.46923828 C-214.04626178 85.3536403 -214.0233223 82.67269725 -212 79 C-209.8125 77.125 -209.8125 77.125 -207 76 C-203.1875 76.3125 -203.1875 76.3125 -200 77 C-199.96261719 76.02417969 -199.92523438 75.04835938 -199.88671875 74.04296875 C-199.78810547 72.13451172 -199.78810547 72.13451172 -199.6875 70.1875 C-199.62949219 68.92292969 -199.57148438 67.65835938 -199.51171875 66.35546875 C-199 63 -199 63 -197.83203125 61.11328125 C-195.18708374 59.50601037 -193.08436328 59.18300301 -190 59 C-182.40307658 61.06894936 -175.37843418 65.32779022 -168.5078125 69.0859375 C-164.56381334 71.23800831 -160.61147485 73.36525386 -156.625 75.4375 C-155.97112305 75.79175049 -155.31724609 76.14600098 -154.64355469 76.51098633 C-149.38772807 79.21186004 -145.03798158 79.74261772 -139.1875 78.3125 C-136.32296148 76.59377689 -136.12064395 75.10297827 -135 72 C-134.02872557 69.53508506 -133.05322343 67.07279337 -132.05859375 64.6171875 C-131.38912436 62.96204177 -130.73359807 61.30112742 -130.09765625 59.6328125 C-127.77267243 53.86525607 -124.80614123 49.03636912 -120 45 C-114.25152786 42.66163845 -108.99247436 42.93828335 -102.84375 43.0625 C-99.21226593 42.98268716 -96.42132898 42.16470774 -93 41 C-90 41 -90 41 -88 42.75 C-86 45 -86 45 -84.625 47.25 C-83.05444786 49.29713595 -83.05444786 49.29713595 -80.0625 49.5 C-76.39148451 48.90065053 -75.39679705 47.73919663 -73 45 C-72.34 45 -71.68 45 -71 45 C-70.773125 44.443125 -70.54625 43.88625 -70.3125 43.3125 C-68.02395941 39.28030943 -64.82412102 36.54941401 -61 34 C-60.319375 33.896875 -59.63875 33.79375 -58.9375 33.6875 C-58.298125 33.460625 -57.65875 33.23375 -57 33 C-55.84478498 30.52869082 -55.84478498 30.52869082 -55 28 C-54.34 27.67 -53.68 27.34 -53 27 C-53.33 25.02 -53.66 23.04 -54 21 C-49.62582032 18.74663471 -46.75483329 18.87173447 -42 20 C-39.90518963 20.93364207 -37.90044344 21.95128184 -35.89453125 23.0625 C-33.07761775 24.48168349 -33.07761775 24.48168349 -30 25 C-27.11348565 23.4754554 -27.11348565 23.4754554 -24.125 21.1875 C-22.97396351 20.35285745 -21.82292164 19.5182223 -20.671875 18.68359375 C-19.7756543 18.02399658 -19.7756543 18.02399658 -18.86132812 17.35107422 C-16.97601073 15.98258702 -15.0648644 14.66074091 -13.140625 13.34765625 C-11.88537131 12.48183658 -10.63016181 11.61595285 -9.375 10.75 C-8.78348145 10.35063232 -8.19196289 9.95126465 -7.58251953 9.53979492 C-4.08565246 7.08874356 -1.87255856 4.85136157 0 1 C0 0.67 0 0.34 0 0 Z " fill="#003467" transform="translate(330,0)"/>
<path d="M0 0 C0.33 0.66 0.66 1.32 1 2 C9.91 2 18.82 2 28 2 C19.71252576 20.61285199 19.71252576 20.61285199 15.953125 28.203125 C15.45143799 29.22204834 14.94975098 30.24097168 14.43286133 31.29077148 C13.45210274 33.27262439 12.4601044 35.24896312 11.45581055 37.21899414 C7.59550749 45.0451635 7.73859287 50.45046281 9 59 C9.98776639 66.86208654 10.10415714 74.71229388 10.125 82.625 C10.12959229 83.59050781 10.13418457 84.55601562 10.13891602 85.55078125 C10.12723067 91.03260993 9.82090337 96.3824662 9.21386719 101.82958984 C8.9602324 104.40357763 8.96848738 106.91669669 9.0625 109.5 C9.10719386 114.73663047 8.81420482 120.04246705 7 125 C3.21157527 127.52561648 0.21466671 127.25391573 -4.16796875 127.1953125 C-5.36018791 127.19106766 -5.36018791 127.19106766 -6.57649231 127.18673706 C-9.11364838 127.17554705 -11.65045072 127.15044491 -14.1875 127.125 C-15.90819802 127.11496866 -17.62890159 127.10584308 -19.34960938 127.09765625 C-23.56654243 127.07561161 -27.78321125 127.04109006 -32 127 C-32.16218018 127.53294678 -32.32436035 128.06589355 -32.49145508 128.61499023 C-34.41783956 134.68858934 -36.90389466 140.33870201 -39.6875 146.0625 C-41.110625 149.011875 -42.53375 151.96125 -44 155 C-53.9 155 -63.8 155 -74 155 C-76.35725296 134.0454814 -78.63931884 113.08626539 -80.6328125 92.09375 C-80.70046436 91.38134218 -80.76811623 90.66893436 -80.83781815 89.93493843 C-81.5125623 82.81846808 -82.18004261 75.70133733 -82.83965111 68.58344841 C-83.02795725 66.5541739 -83.21728589 64.52499743 -83.4069519 62.49584961 C-83.64020682 59.99631276 -83.87122462 57.49656579 -84.09963989 54.99658203 C-84.20372162 53.88259033 -84.30780334 52.76859863 -84.41503906 51.62084961 C-84.50432678 50.65150986 -84.5936145 49.6821701 -84.68560791 48.68345642 C-84.99045061 46.0815077 -85.447889 43.55981215 -86 41 C-86.31001953 41.67015137 -86.62003906 42.34030273 -86.93945312 43.03076172 C-95.52571357 61.58120867 -104.20103679 80.0885696 -112.91650391 98.57861328 C-116.10671236 105.34744751 -119.29193478 112.11862854 -122.47763062 118.8895874 C-123.45872191 120.9747688 -124.43990709 123.05990598 -125.42114258 125.14501953 C-125.73013992 125.80171631 -126.03913727 126.45841309 -126.35749817 127.13500977 C-126.96772528 128.43152691 -127.57822432 129.72791611 -128.18901062 131.02416992 C-129.86976595 134.59224445 -131.54379312 138.1633362 -133.2109375 141.73779297 C-133.57731323 142.52141708 -133.94368896 143.3050412 -134.32116699 144.1124115 C-135.03232076 145.63369373 -135.74177474 147.15577198 -136.44934082 148.6787262 C-138.88747861 153.88747861 -138.88747861 153.88747861 -140 155 C-142.07262076 155.08767112 -144.14820294 155.10695873 -146.22265625 155.09765625 C-147.48271484 155.09443359 -148.74277344 155.09121094 -150.04101562 155.08789062 C-151.38151109 155.07953403 -152.72200588 155.07106907 -154.0625 155.0625 C-155.40689942 155.0574866 -156.7513006 155.05292342 -158.09570312 155.04882812 C-161.39717941 155.03699488 -164.69856803 155.02050971 -168 155 C-170.22186676 143.44679694 -171.28127992 131.75378771 -172.49609375 120.0625 C-172.73234585 117.81498857 -172.96892962 115.56751199 -173.20582581 113.32006836 C-173.82762404 107.41292903 -174.44512623 101.50534856 -175.06164551 95.59765625 C-175.80138691 88.51689668 -176.54624134 81.43667352 -177.29032326 74.35636902 C-177.88675221 68.67955889 -178.48212386 63.00264287 -179.07479858 57.32543945 C-180.03487278 48.13522334 -180.9964225 38.94553781 -182.01611328 29.76171875 C-182.16000992 28.45775146 -182.30390656 27.15378418 -182.4521637 25.81030273 C-182.70264494 23.55542066 -182.95699472 21.30096213 -183.21665955 19.04711914 C-183.32313309 18.08797607 -183.42960663 17.12883301 -183.53930664 16.140625 C-183.62958633 15.35204102 -183.71986603 14.56345703 -183.81288147 13.75097656 C-184.07873066 9.84251876 -184 5.91748876 -184 2 C-175.09 2 -166.18 2 -157 2 C-156.80083984 5.12662109 -156.80083984 5.12662109 -156.59765625 8.31640625 C-156.46590223 10.35526761 -156.33321466 12.39406624 -156.20043945 14.43286133 C-156.10929563 15.84002511 -156.01910872 17.24725123 -155.92993164 18.65454102 C-155.80091351 20.687838 -155.66835258 22.72087919 -155.53515625 24.75390625 C-155.41732788 26.58417358 -155.41732788 26.58417358 -155.29711914 28.45141602 C-155.10736536 30.7177029 -154.85583131 32.98021377 -154.52490234 35.23022461 C-153.81522085 40.32705807 -153.44695791 45.43190232 -153.06640625 50.5625 C-152.98089005 51.69437744 -152.89537384 52.82625488 -152.80726624 53.99243164 C-152.16032041 62.63853356 -151.55662956 71.28746933 -150.96484375 79.9375 C-150.83766464 81.79532104 -150.83766464 81.79532104 -150.70791626 83.69067383 C-150.36105952 88.76839597 -150.01481118 93.84614675 -149.67456055 98.92431641 C-149.42098921 102.69981664 -149.16212886 106.47492296 -148.90234375 110.25 C-148.78825417 111.98237915 -148.78825417 111.98237915 -148.67185974 113.74975586 C-148.59830765 114.80686768 -148.52475555 115.86397949 -148.44897461 116.953125 C-148.38616806 117.88286133 -148.32336151 118.81259766 -148.25865173 119.77050781 C-148.12434338 122.03561286 -148.12434338 122.03561286 -147 124 C-146.7004541 123.33097656 -146.4009082 122.66195312 -146.09228516 121.97265625 C-142.06524894 112.98009878 -138.03359579 103.98961681 -134 95 C-133.47808075 93.83664124 -133.47808075 93.83664124 -132.94561768 92.64978027 C-124.14878412 73.04317208 -115.31704543 53.4539052 -106.36361694 33.91824341 C-101.50213079 23.31045341 -96.70285181 12.67939265 -92 2 C-82.43 2 -72.86 2 -63 2 C-62.80664062 4.59488281 -62.61328125 7.18976563 -62.4140625 9.86328125 C-62.21942663 12.44853802 -62.02381849 15.03371958 -61.828125 17.61889648 C-61.69527927 19.38053938 -61.56340344 21.14225575 -61.43261719 22.90405273 C-60.73908486 32.23739741 -59.97801367 41.55126921 -58.9609375 50.85546875 C-58.08198499 58.8972907 -57.47795506 66.92315759 -57 75 C-56.36998866 85.04360416 -55.57658412 95.03325493 -54.4375 105.03125 C-53.92690999 109.66303084 -53.5615871 114.29661463 -53.24609375 118.9453125 C-53.21584773 120.99015173 -53.21584773 120.99015173 -52 122 C-51.63575928 121.15671143 -51.27151855 120.31342285 -50.89624023 119.44458008 C-49.0772095 115.23364927 -47.25740078 111.02305485 -45.4375 106.8125 C-45.0920816 106.0132309 -44.74666321 105.21396179 -44.39077759 104.39047241 C-39.67257088 93.47427058 -34.94340079 82.5628873 -30.203125 71.65625 C-29.19734533 69.3413907 -28.19156735 67.02653067 -27.18579102 64.71166992 C-25.70753801 61.30953324 -24.22887453 57.90757848 -22.74874878 54.5062561 C-17.42752222 42.27799635 -12.13983211 30.0361167 -6.92578125 17.76171875 C-6.46108932 16.67164017 -5.9963974 15.58156158 -5.5176239 14.45845032 C-5.08553116 13.43793076 -4.65343842 12.41741119 -4.20825195 11.3659668 C-3.82909134 10.47241989 -3.44993073 9.57887299 -3.0592804 8.6582489 C-1.92233878 5.80511028 -0.94514576 2.92170183 0 0 Z " fill="#FBFCFD" transform="translate(307,165)"/>
<path d="M0 0 C0.66 0.33 1.32 0.66 2 1 C2.37890625 4.0625 2.37890625 4.0625 2.5625 8 C2.76634497 12.12682053 3.0034261 16.18616099 3.51953125 20.28515625 C4.14459857 25.6700852 4.14644742 31.02202615 4.125 36.4375 C4.13080078 37.89639648 4.13080078 37.89639648 4.13671875 39.38476562 C4.12931717 44.92484479 3.82860649 50.33142086 3.21386719 55.83618164 C2.95968341 58.4079063 2.9685681 60.91891472 3.0625 63.5 C3.10719386 68.73663047 2.81420482 74.04246705 1 79 C-2.74004317 81.49336211 -5.62561609 81.25481228 -9.94921875 81.1953125 C-11.10814384 81.19106766 -11.10814384 81.19106766 -12.29048157 81.18673706 C-14.75631243 81.17554878 -17.22177906 81.15044703 -19.6875 81.125 C-21.36002079 81.11496843 -23.03254728 81.10584289 -24.70507812 81.09765625 C-28.80352559 81.07561392 -32.90170106 81.04109363 -37 81 C-36.35826636 76.26836863 -34.40475263 72.27606037 -32.34375 68.02734375 C-31.96906082 67.24319595 -31.59437164 66.45904816 -31.20832825 65.65113831 C-29.97729108 63.07746108 -28.73860565 60.50754214 -27.5 57.9375 C-26.64674576 56.15655352 -25.79413237 54.37529987 -24.94213867 52.59375 C-23.62615187 49.84221275 -22.30973862 47.09088831 -20.99125671 44.34054565 C-16.77326298 35.54075135 -12.60156984 26.71940059 -8.44042969 17.89260864 C-7.32154841 15.51919383 -6.20191212 13.14613666 -5.08203125 10.77319336 C-3.38746353 7.18239154 -1.69351844 3.5912968 0 0 Z " fill="#01396D" transform="translate(313,211)"/>
<path d="M0 0 C1.42892578 0.53560547 1.42892578 0.53560547 2.88671875 1.08203125 C5.3125 2.1875 5.3125 2.1875 7.3125 4.1875 C1.77293165 3.43210432 1.77293165 3.43210432 -0.6875 2.125 C-3.49634632 0.80835329 -5.62667023 0.86187981 -8.6875 1.1875 C-10.64375978 2.14298981 -10.64375978 2.14298981 -11.6875 4.1875 C-12.41791853 7.79773099 -12.41791853 7.79773099 -12.6875 11.1875 C-13.0175 11.1875 -13.3475 11.1875 -13.6875 11.1875 C-13.76881463 9.75094146 -13.82683559 8.3130517 -13.875 6.875 C-13.90980469 6.07449219 -13.94460937 5.27398437 -13.98046875 4.44921875 C-13.6875 2.1875 -13.6875 2.1875 -12.48828125 0.45703125 C-8.16091053 -2.59371817 -4.7135813 -1.81984107 0 0 Z " fill="#0580B2" transform="translate(144.6875,60.8125)"/>
<path d="M0 0 C1.051875 0.495 1.051875 0.495 2.125 1 C2.125 1.33 2.125 1.66 2.125 2 C-1.835 1.67 -5.795 1.34 -9.875 1 C-9.875 3.31 -9.875 5.62 -9.875 8 C-10.535 7.67 -11.195 7.34 -11.875 7 C-12.5 3.9375 -12.5 3.9375 -12.875 1 C-8.54880152 -1.66227599 -4.74742897 -1.65127964 0 0 Z " fill="#0467AF" transform="translate(288.875,20)"/>
<path d="M0 0 C0.99 0.33 1.98 0.66 3 1 C3.33 1.99 3.66 2.98 4 4 C2.14209924 5.85790076 -0.42472159 5.17949707 -2.89453125 5.23046875 C-5 5 -5 5 -9 3 C-4.545 2.505 -4.545 2.505 0 2 C0 1.34 0 0.68 0 0 Z " fill="#0574B0" transform="translate(250,375)"/>
<path d="M0 0 C0.66 0.33 1.32 0.66 2 1 C2.4140625 3.50390625 2.4140625 3.50390625 2.625 6.5625 C2.69976562 7.57441406 2.77453125 8.58632812 2.8515625 9.62890625 C2.92503906 10.80259766 2.92503906 10.80259766 3 12 C0 10 0 10 -0.546875 8.125 C-0.61390625 7.42375 -0.6809375 6.7225 -0.75 6 C-0.82734375 5.29875 -0.9046875 4.5975 -0.984375 3.875 C-1 2 -1 2 0 0 Z " fill="#0971AD" transform="translate(313,211)"/>
<path d="M0 0 C1.98 0.495 1.98 0.495 4 1 C3.525625 1.350625 3.05125 1.70125 2.5625 2.0625 C0.32126175 4.84163543 0.32882342 7.5144717 0 11 C-0.33 11 -0.66 11 -1 11 C-1.0270043 9.54176788 -1.04639787 8.08339325 -1.0625 6.625 C-1.07410156 5.81289062 -1.08570313 5.00078125 -1.09765625 4.1640625 C-1 2 -1 2 0 0 Z " fill="#045492" transform="translate(132,61)"/>
</svg>
